<svg data-v-0dd9719b="" version="1.0" xmlns="http://www.w3.org/2000/svg" xmlns:xlink="http://www.w3.org/1999/xlink" width="100%" height="100%" viewBox="0 0 340.000000 250.000000" preserveAspectRatio="xMidYMid meet" color-interpolation-filters="sRGB" style="margin: auto;"> <rect data-v-0dd9719b="" x="0" y="0" width="100%" height="100%" fill="#fff" fill-opacity="1" class="background"></rect> <rect data-v-0dd9719b="" x="0" y="0" width="100%" height="100%" fill="url(#watermark)" fill-opacity="1" class="watermarklayer"></rect> <g data-v-0dd9719b="" fill="#00a5a9" class="icon-text-wrapper icon-svg-group iconsvg" transform="translate(48.284996032714844,96.98356437683105)"><g class="iconsvg-imagesvg" transform="translate(0,0)"><g><rect fill="#00a5a9" fill-opacity="0" stroke-width="2" x="0" y="0" width="60" height="56.032872618602916" class="image-rect"></rect> <svg x="0" y="0" width="60" height="56.032872618602916" filtersec="colorsb6481436126" class="image-svg-svg primary" style="overflow: visible;"><svg xmlns="http://www.w3.org/2000/svg" viewBox="13.677627563476562 89.5285873413086 1476.3446044921875 1378.7261962890625"><g fill-rule="evenodd" clip-rule="evenodd"><path fill="#F08D00" d="M358.406 181.943C550.705 70.924 774.3 63.149 965.028 141.368l-57.756 33.342c-167.65-56.601-357.884-43.599-523.129 51.804-305.012 176.1-409.561 566.267-233.459 871.279 176.096 305.007 566.264 409.55 871.276 233.453 185.105-106.868 296.369-292.59 315.869-490.267l53.858-31.089c-10.432 226.913-132.717 443.941-343.995 565.929-329.625 190.309-751.274 77.33-941.577-252.3-190.313-329.618-77.328-751.268 252.291-941.576zm699.421 5.909l-51.649 29.82a637.01 637.01 0 0 1 84.719 54.722l47.961-27.691a686.894 686.894 0 0 0-81.031-56.851zm147.339 118.633l-45.885 26.491c21.022 21.533 40.692 44.789 58.827 69.669l44.813-25.873a687.636 687.636 0 0 0-57.755-70.287zm103.789 143.775l-44.605 25.751a639.248 639.248 0 0 1 37.178 82.169l45.185-26.085a690.8 690.8 0 0 0-37.758-81.835zm64.195 166.634l-46.629 26.921a633.982 633.982 0 0 1 13.22 95.999l49.409-28.525a685.037 685.037 0 0 0-16-94.395z"></path><path fill="#00A5A9" d="M413.555 277.454c69.461-40.106 143.791-64.161 218.694-73.335-29.125 38.673-53.036 80.618-71.49 124.693L169.17 554.897c47.212-112.791 130.338-211.603 244.385-277.443zm630.931-181.966L540.023 386.74 230.588 565.392l-82.155 47.433c-16.611 55.521-24.915 113.473-24.395 171.828l391.585-226.088a581.895 581.895 0 0 1 2.5-59.114L1153.08 132.86a582.853 582.853 0 0 0-108.594-37.372zm198.664 89.001L517.768 603.288 318.795 718.167 126.178 829.375a574.869 574.869 0 0 0 30.16 140.325l391.59-226.085a575.151 575.151 0 0 1-14.774-49.142l781.316-451.095a576.018 576.018 0 0 0-71.32-58.889zm131.619 127.706L562.554 781.127l-155.556 89.811-236.034 136.274a581.113 581.113 0 0 0 30.659 61.169c11.552 20.015 24.156 39.053 37.64 57.135l391.596-226.085a589.923 589.923 0 0 1-28.212-41.383l818.67-472.66c-2.883-5.38-1.587-3.39-8.903-16.059-7.316-12.669-24.156-39.047-37.645-57.134zm82.93 155.819l-801.665 462.84-160.828 92.858-230.763 133.228a574.66 574.66 0 0 0 106.449 96.282l391.59-226.085a576.151 576.151 0 0 1-42.758-32.99l760.946-439.333a574.74 574.74 0 0 0-22.971-86.8zm32.3 185.047a580.476 580.476 0 0 1-8.638 105.055l-585.923 338.286a584.178 584.178 0 0 0 65.703 19.738l-391.59 226.085c-56.381-13.378-110.733-35.155-160.998-64.789l174.854-100.954 216.736-125.131 689.856-398.29zm-324.587 474.515c-45.396 60.283-103.396 112.623-172.863 152.732-114.035 65.835-241.178 88.43-362.46 72.923l391.591-226.085c47.397 6.062 95.681 6.323 143.732.43z"></path></g></svg></svg> <!----></g></g> <g transform="translate(67,5.691436767578125)"><g data-gra="path-name" fill-rule="" class="tp-name iconsvg-namesvg"><g transform="scale(1)"><g><path d="M11.45 0.45C21.17 0.45 24.2-3.21 24.2-9.45 24.2-15.15 23.25-17.64 15.43-19.68 11.54-20.67 10.86-20.99 10.86-22.44 10.86-23.93 11.99-24.61 14.88-24.61 17.37-24.61 21.31-24.02 22.62-23.52L22.62-30.72C20.85-31.3 18.41-31.85 14.48-31.85 6.97-31.85 2.17-29.49 2.17-22.08 2.17-16.51 3.8-14.34 10.68-12.76 14.61-11.81 15.2-11.04 15.2-9.73 15.2-7.78 14.7-7.15 10.95-7.15 8.14-7.15 4.48-7.74 2.4-8.32L2.4-0.59C4.61-0.05 7.96 0.45 11.45 0.45ZM44.79-24.88C40.8-24.88 38.81-23.61 37.86-22.39L37.86-24.43 29.27-24.43 29.27 9.05 37.86 9.05 37.86-2.31C38.81-0.63 40.62 0.45 44.79 0.45 52.48 0.45 54.24-5.02 54.24-12.21 54.24-20.18 52.48-24.88 44.79-24.88ZM41.53-5.79C38.09-5.79 37.37-8.19 37.37-12.21 37.37-16.51 38.09-18.73 41.53-18.73 45.01-18.73 45.55-16.2 45.55-12.21 45.55-8.46 45.1-5.79 41.53-5.79ZM73.65-24.88C70.75-24.88 68.53-24.07 67.09-20.18L67.09-24.43 58.49-24.43 58.49 0 67.09 0 67.09-12.76C67.45-16.15 70.43-17.24 73.28-17.24L73.96-17.24 74.14-24.88ZM81.47-26.96C85.45-26.96 86.13-27.37 86.13-31.35 86.13-35.29 85.45-35.6 81.47-35.6 77.54-35.6 76.81-35.29 76.81-31.35 76.81-27.37 77.54-26.96 81.47-26.96ZM77.18 0L85.77 0 85.77-24.43 77.18-24.43ZM104.59-17.82L104.59-24.43 100.25-24.43 100.25-30.22 91.65-30.22 91.65-24.43 88.76-24.43 88.76-17.82 91.65-17.82 91.65-8.05C91.65-1.67 93.91 0.27 100.43 0.27 101.51 0.27 102.96 0.18 103.91 0.05L103.91-6.38C103.5-6.24 103.01-6.29 102.51-6.29 100.74-6.29 100.25-6.74 100.25-8.87L100.25-17.82ZM123.05-24.43L123.05-8.32C122.64-7.1 121.64-6.33 119.7-6.33 116.98-6.33 116.26-7.01 116.26-9.86L116.26-24.43 107.67-24.43 107.67-7.83C107.67-2.04 110.02 0.45 115.81 0.45 119.92 0.45 121.92-0.77 123.14-2.44L123.68 0 131.6 0 131.6-24.43ZM152.18-24.88C149.28-24.88 147.07-24.07 145.62-20.18L145.62-24.43 137.02-24.43 137.02 0 145.62 0 145.62-12.76C145.98-16.15 148.97-17.24 151.82-17.24L152.5-17.24 152.68-24.88ZM178.6-13.8C178.6-21.26 176.25-24.88 167.56-24.88 159.46-24.88 154.76-22.26 154.76-12.21 154.76-2.17 159.46 0.45 167.15 0.45 171.99 0.45 175.88-0.45 177.38-1.49L177.38-7.83C175.93-6.97 172.17-6.06 168.87-6.06 165.75-6.06 163.8-6.92 163.31-9.05L178.33-9.95C178.46-10.31 178.6-11.81 178.6-13.8ZM163.26-14.88C163.44-17.91 164.71-18.59 167.6-18.59 170.32-18.59 171-17.33 171-15.47Z" transform="translate(-2.1700000762939453, 35.599998474121094)"></path></g> <!----> <!----> <!----> <!----> <!----> <!----> <!----></g></g> <!----></g></g><defs v-gra="od"></defs></svg>